<svg id="Capa_1" enable-background="new 0 0 501 501" height="512" viewBox="0 0 501 501" width="512" xmlns="http://www.w3.org/2000/svg"><g><path d="m495.5 256c0 75.781-34.406 143.526-88.449 188.467-13.708-18.166-35.477-29.909-59.989-29.909h-193.124c-24.512 0-46.281 11.743-59.989 29.909-54.043-44.941-88.449-112.686-88.449-188.467 0-135.31 109.69-245 245-245s245 109.69 245 245z" fill="#f5c02c"/><path d="m493.801 285c-7.54 63.942-39.705 120.345-86.75 159.467-13.708-18.167-35.477-29.909-59.989-29.909h-193.124c-24.438 0-46.151 11.673-59.866 29.747-52.967-44.062-87.249-109.985-88.534-183.948-.239-13.734.653-27.215 2.588-40.357h39.874c5.523 0 10 4.477 10 10v18c0 1.105.895 2 2 2h18c5.523 0 10 4.477 10 10v8c0 1.105.895 2 2 2h16c1.105 0 2-.895 2-2v-68c0-5.523 4.477-10 10-10h10c5.523 0 10 4.477 10 10v68c0 1.105.895 2 2 2h176c1.105 0 2-.895 2-2v-48c0-5.523 4.477-10 10-10h10c5.523 0 10 4.477 10 10v48c0 1.105.895 2 2 2h16c1.105 0 2-.895 2-2v-18c0-5.523 4.477-10 10-10h18c1.105 0 2-.895 2-2v-8c0-5.523 4.477-10 10-10h40c5.523 0 10 4.477 10 10v53c0 1.105.895 2 2 2z" fill="#f19b0b"/><path d="m410.5 410v31.545c-42.926 37.049-98.847 59.455-160 59.455s-117.074-22.406-160-59.455v-31.545c0-38.66 31.34-70 70-70h180c38.66 0 70 31.34 70 70z" fill="#75a5d3"/><path d="m410.5 410v31.545c-42.926 37.049-98.847 59.455-160 59.455-47.757 0-92.322-13.664-130-37.296v-53.704c0-38.66 31.34-70 70-70h150c38.66 0 70 31.34 70 70z" fill="#81bdfd"/><path d="m149.235 340c0-5.523 4.477-10 10-10h85.265v170.928c-41.549-.999-80.536-12.341-114.483-31.551l19.218-19.218z" fill="#495959"/><path d="m351.765 450.159 19.218 19.218c-33.948 19.21-72.934 30.552-114.483 31.551v-170.928h85.265c5.523 0 10 4.477 10 10z" fill="#607882"/><path d="m353.486 314.36-102.986 85.64-102.986-85.64c-2.738-2.277-2.286-6.604.863-8.266l102.123-46.094 102.123 46.094c3.149 1.662 3.601 5.99.863 8.266z" fill="#962437"/><path d="m165.5 215v10c0 13.807-11.193 25-25 25-13.807 0-25-11.193-25-25v-10c0-13.807 11.193-25 25-25 13.807 0 25 11.193 25 25z" fill="#f4e0d8"/><path d="m130.5 210v20c0 8.178 3.927 15.439 9.998 20-13.806-.001-24.998-11.194-24.998-25v-10c0-13.806 11.192-24.999 24.998-25-6.071 4.561-9.998 11.822-9.998 20zm230-20v-20c0-60.751-49.249-110-110-110-60.751 0-110 49.249-110 110v40c0 50.351 33.83 92.801 80 105.859v34.141c0 16.569 13.431 30 30 30 16.569 0 30-13.431 30-30v-34.141c33.586-9.499 60.641-34.551 72.895-66.883 2.252.666 4.637 1.024 7.105 1.024 13.807 0 25-11.193 25-25v-10c0-13.807-11.193-25-25-25z" fill="#efcfc8"/><path d="m360.5 170v40c0 50.702-34.303 93.391-80.966 106.127-9.181 2.506-18.887 2.506-28.067 0-46.664-12.736-80.967-55.425-80.967-106.127v-40c0-55.663 41.345-101.669 95-108.985 53.655 7.316 95 53.322 95 108.985z" fill="#f4e0d8"/><path d="m218 185c0 8.284-6.716 15-15 15s-15-6.716-15-15 6.716-15 15-15 15 6.716 15 15zm80-15c-8.284 0-15 6.716-15 15s6.716 15 15 15 15-6.716 15-15-6.716-15-15-15z" fill="#003278"/><path d="m220.5 177.5c0 4.142-3.358 7.5-7.5 7.5s-7.5-3.358-7.5-7.5 3.358-7.5 7.5-7.5 7.5 3.358 7.5 7.5zm87.5-7.5c-4.142 0-7.5 3.358-7.5 7.5s3.358 7.5 7.5 7.5 7.5-3.358 7.5-7.5-3.358-7.5-7.5-7.5z" fill="#fff5f5"/><path d="m305.5 237.81v36.75c0 2.761-2.239 5-5 5-13.807 0-25-11.193-25-25v-5h-50v5c0 13.807-11.193 25-25 25-2.761 0-5-2.239-5-5v-38.5c0-5.523 4.477-10 10-10h88.25c6.489 0 11.75 5.26 11.75 11.75z" fill="#a64b30"/><path d="m209.238 277.99c-2.72 1.015-5.664 1.57-8.738 1.57-2.761 0-5-2.239-5-5v-38.5c0-5.523 4.477-10 10-10h12.375c-5.523 0-10 4.477-10 10v38.5c0 1.328.518 2.535 1.363 3.43z" fill="#8b3d27"/><path d="m266.5 267.5c0 4.142-3.358 7.5-7.5 7.5h-17c-4.142 0-7.5-3.358-7.5-7.5s3.358-7.5 7.5-7.5h17c4.142 0 7.5 3.358 7.5 7.5zm.339-64.863c-2.929-2.929-7.678-2.929-10.606 0-3.161 3.161-8.304 3.161-11.465 0-2.929-2.929-7.678-2.929-10.606 0-2.929 2.929-2.929 7.678 0 10.606 4.504 4.505 10.422 6.757 16.339 6.757s11.834-2.252 16.339-6.757c2.928-2.929 2.928-7.678-.001-10.606z" fill="#e1a595"/><path d="m362.5 168.5-2 21.5c-27.286-20.018-45-53.565-45-90v-18.75c27.286 20.018 47 50.815 47 87.25zm-223.833.833 1.833 20.667c27.286-20.018 45-53.565 45-90v-18.75c-27.286 20.018-46.833 51.648-46.833 88.083z" fill="#8b3d27"/><path d="m351.75 437.5v41.665c-4.915 2.234-9.917 4.31-15 6.222v-47.887c0-4.142 3.358-7.5 7.5-7.5s7.5 3.358 7.5 7.5z" fill="#495959"/><path d="m164.25 437.5v47.887c-5.083-1.912-10.085-3.988-15-6.222v-41.665c0-4.142 3.358-7.5 7.5-7.5s7.5 3.358 7.5 7.5z" fill="#3f4a4a"/><path d="m233.185 167.74c-1.004 5.693-6.433 9.495-12.126 8.491l-45.605-8.042c-5.693-1.004-9.495-6.433-8.491-12.126 1.004-5.693 6.433-9.495 12.126-8.491l45.605 8.042c5.694 1.004 9.495 6.433 8.491 12.126zm100.852-11.677c-1.004-5.693-6.433-9.495-12.126-8.491l-45.605 8.042c-5.693 1.004-9.495 6.433-8.491 12.126 1.004 5.693 6.433 9.495 12.126 8.491l45.605-8.042c5.693-1.004 9.494-6.433 8.491-12.126z" fill="#b76c54"/><path d="m315.907 327.365 38.77-14.443-90.138 187.682c-4.646.262-9.327.396-14.039.396s-9.393-.133-14.039-.396l-88.947-186.244 37.58 13.005c42.371 14.663 88.441 14.663 130.813 0z" fill="#ee4424"/><path d="m249.221 419.784-43.764-36.393c-1.621-1.348-3.956.406-3.112 2.338.827 1.892 1.661 3.801 2.5 5.725 9.842 22.551 25.099 42.328 44.416 57.569.726.573 1.751.573 2.478 0l25.557-20.163c1.851-1.461 4.263.926 2.822 2.793l-28.034 36.299c-.801 1.037-2.365 1.037-3.166 0l-15.224-19.712c-1.435-1.858-4.341-.145-3.419 2.014 12.213 28.614 21.31 50.746 20.225 50.746-4.712 0-9.393-.133-14.039-.396l-89.986-187.423 28.707 10.754.001.003c7.792 17.602 20.657 32.49 36.947 42.747l37.304 23.49c.651.41 1.48.41 2.131 0l94.454-59.229-8.635 17.979-85.606 70.857c-.74.618-1.816.618-2.557.002z" fill="#c92c2c"/><path d="m450.5 75.535c0 27.614-89.543 90-200 90s-200-62.386-200-90 89.543-10 200-10 200-17.614 200 10z" fill="#0055c7"/><path d="m326.308 155.884c-23.38 5.97-48.976 9.651-75.808 9.651-110.457 0-200-62.386-200-90 0-7.784 7.115-11.974 19.807-13.978 10.973 33.358 107.48 95.771 224.91 95.771 10.548.001 20.927-.503 31.091-1.444z" fill="#015081"/><path d="m168.227 110 14.777-98.51c1.18-7.868 9.204-12.741 16.729-10.161 29.255 10.03 60.916 10.645 90.538 1.759l8.483-2.545c7.369-2.211 15 2.565 16.234 10.158l16.137 99.299z" fill="#015081"/><path d="m199.754 11.49-14.777 98.51h-16.75l14.777-98.51c1.18-7.868 9.204-12.741 16.729-10.161 1.731.594 3.471 1.154 5.218 1.681-2.693 1.919-4.659 4.887-5.197 8.48z" fill="#013f69"/><path d="m182.595 14.211.408-2.721c1.18-7.868 9.204-12.741 16.729-10.161 29.255 10.03 60.916 10.645 90.538 1.758l8.483-2.545c7.369-2.211 15 2.565 16.234 10.158l1.068 6.571c-11.619 34.804-36.911 58.929-66.242 58.929-30.181.001-56.087-25.546-67.218-61.989z" fill="#0055c7"/><path d="m336.816 122.015c-27.119 3.309-56.424 5.116-87.001 5.116-30.727 0-60.17-1.825-87.401-5.166-2.307-.283-3.921-2.423-3.576-4.722l4.088-27.256c.332-2.21 2.354-3.75 4.574-3.496 25.797 2.956 53.491 4.562 82.314 4.562 28.552 0 55.996-1.576 81.587-4.479 2.199-.249 4.207 1.262 4.562 3.447l4.423 27.221c.377 2.316-1.242 4.489-3.57 4.773z" fill="#ee4424"/><path d="m184.617 124.306c-7.546-.669-14.953-1.451-22.202-2.34-2.307-.283-3.921-2.423-3.576-4.722l4.088-27.256c.331-2.21 2.347-3.682 4.574-3.496 5.832.487 15.248 1.517 20.695 2.044z" fill="#c92c2c"/></g></svg>